<svg id="Layer_1" data-name="Layer 1" xmlns="http://www.w3.org/2000/svg" viewBox="0 0 793.7 255.12"><defs><style>.cls-1{fill:#fff;}.cls-2{fill:#ffc709;}</style></defs><path class="cls-1" d="M102.11,67l-14-8.76L55.71,85.89l-.25.21L42.52,124.93l12.93,38.79,33.12,33.12,13.54-27.1ZM78.48,88.57,88.82,61.38l10.35,6.49ZM76.27,88a6,6,0,0,0-.74-.06,5.19,5.19,0,0,0-4.45,2.52L58.71,86.32l26.91-22.9Zm-5.91,4.61a4.58,4.58,0,0,0,0,.53A5.19,5.19,0,0,0,73.69,98l-4.83,33.79L58,88.49Zm-4.48,49.09-9.23,18.47-11-33,18.56,9a5.28,5.28,0,0,0-.23,1.55A5.19,5.19,0,0,0,65.88,141.68Zm2,1a5.1,5.1,0,0,0,1.25.15l.52,0,16,47.89L57.82,162.88ZM71,132.8l4.93-34.5.54-.07,22.26,52.09L74.29,138.48a4.47,4.47,0,0,0,.07-.82A5.2,5.2,0,0,0,71,132.8Zm7.55-35.47a5.18,5.18,0,0,0,2.17-4.21,5.1,5.1,0,0,0-.82-2.78L99.84,70.41v76.71ZM56.29,90.81,66.84,133a5,5,0,0,0-1.49,1.12l-20.24-9.8ZM88.46,192,71.84,142.1a5.16,5.16,0,0,0,1.61-1.51l26.39,12.78V169.2Z"/><path class="cls-2" d="M159.22,86.1,126.53,58.28l-14,8.76v33.73a5.2,5.2,0,0,0,0,10.14v58.83l13.55,27.1L159,163.91l.19-.19,12.93-38.79Zm-27.6,70.52a5.15,5.15,0,0,0-1.44-3.46L150,123.41a5.1,5.1,0,0,0,1.46.34l5.42,37.93Zm-3.32-4.72a5.05,5.05,0,0,0-1.87-.35h-.13L116,110.48a5.2,5.2,0,0,0,2.12-2L146.71,118a4.71,4.71,0,0,0,0,.53,5.13,5.13,0,0,0,1.45,3.58Zm23.46-38.52a4.8,4.8,0,0,0-.85.08L129.4,63.71,157,87.19Zm-2.93,1a5.34,5.34,0,0,0-1.4,1.52l-28.55-9.52c0-.17,0-.35,0-.53a5.19,5.19,0,0,0-2.66-4.53l10.43-38.2ZM124.1,152.1a5.21,5.21,0,0,0-2.87,4.64,5.15,5.15,0,0,0,.81,2.78l-7.2,7.21V115.07Zm-.45,9a5.15,5.15,0,0,0,1.71.7l.37,29.15-10.64-21.29Zm30.07-37.71a5.2,5.2,0,0,0,2.61-2.17l13.2,4.4-10.84,32.54Zm3.33-4.32a4.71,4.71,0,0,0,0-.53,5.21,5.21,0,0,0-3.09-4.75l4.53-22.65,10.65,32ZM124.57,62.19l-9.73,35.62V68.3ZM128,191.74l-.38-29.94a5.25,5.25,0,0,0,3.55-3l24.76,5Z"/><path class="cls-1" d="M751.18,103.74l-5,5.05A20.16,20.16,0,0,0,736,106.21a19.86,19.86,0,0,0-14.69,6.08,21.49,21.49,0,0,0,.2,30,20.11,20.11,0,0,0,14.29,6,20.66,20.66,0,0,0,10.32-2.67l5.07,5.07a28.5,28.5,0,0,1-34.24-2.78c-6.05-5.32-9.12-12.35-9.12-20.9a26.54,26.54,0,0,1,8.32-19.52,27.62,27.62,0,0,1,20-8.17A26.78,26.78,0,0,1,751.18,103.74Z"/><rect class="cls-1" x="678.89" y="101.27" width="7.38" height="53.79"/><polygon class="cls-1" points="659.69 101.27 655.24 108.18 642.51 108.18 642.51 155.07 635.13 155.07 635.13 108.18 622.38 108.18 617.93 101.27 659.69 101.27"/><polygon class="cls-1" points="584.85 98.9 610.3 155.51 602.22 155.51 584.89 115.67 584.73 115.3 566.44 155.51 558.49 155.51 584.85 98.9"/><polygon class="cls-1" points="531.77 98.19 541.75 155.07 534.18 155.07 528.85 121.63 528.75 121.04 512.38 156.95 496.48 121.02 490.43 155.07 482.77 155.07 493.93 98.17 512.34 139.9 512.5 140.27 531.77 98.19"/><polygon class="cls-1" points="460.61 101.27 456.17 108.18 434.06 108.18 434.06 124.67 455.34 124.67 455.34 131.55 434.06 131.55 434.06 148.19 456.17 148.19 460.61 155.07 426.68 155.07 426.68 101.27 460.61 101.27"/><path class="cls-1" d="M379.16,126.36c8.06,0,12.15-3.15,12.15-9.38,0-5.83-4-8.8-11.82-8.8H373.6v18.18Zm6.91,5.55,16.81,23.16h-9l-15.49-22.2-.13-.17H373.6v22.37h-7.35v-53.8H378c7.09,0,12.26,1.34,15.34,4a14.54,14.54,0,0,1,5.17,11.63,15.12,15.12,0,0,1-3.24,9.71,14.31,14.31,0,0,1-8.52,5.19Z"/><path class="cls-1" d="M272.78,103.74l-5,5.05a20.71,20.71,0,0,0-30.83,18.32,20.83,20.83,0,0,0,20.5,21.18,20.56,20.56,0,0,0,10.3-2.67l5.08,5.07a28.46,28.46,0,0,1-34.21-2.78c-6.06-5.31-9.14-12.35-9.14-20.9a26.51,26.51,0,0,1,2.1-10.56,28.87,28.87,0,0,1,26.18-17.13A26.8,26.8,0,0,1,272.78,103.74Z"/><path class="cls-1" d="M311.57,148.7a20.58,20.58,0,0,1-9.77-5.45,21.49,21.49,0,0,1-.23-30,20,20,0,0,1,10-5.56v-7a27.33,27.33,0,0,0-15.11,7.77A26.43,26.43,0,0,0,288.11,128c0,8.58,3.08,15.62,9.14,20.9a28.23,28.23,0,0,0,14.32,6.85Z"/><path class="cls-1" d="M336.12,108.5a27.07,27.07,0,0,0-15.19-7.87v7a19.6,19.6,0,0,1,10,5.57,20.34,20.34,0,0,1,4.48,6.78,22.05,22.05,0,0,1,1.5,8.19,20.74,20.74,0,0,1-6,15,20,20,0,0,1-10,5.54v7a27.7,27.7,0,0,0,15.16-7.71,26.55,26.55,0,0,0,8.29-19.69A26.89,26.89,0,0,0,336.12,108.5Z"/></svg>